<svg width="174" height="33" viewBox="0 0 174 33" fill="none" xmlns="http://www.w3.org/2000/svg">
<path d="M99.8852 31.4711L113.19 1.36269C113.4 0.905805 113.153 0.512888 112.641 0.512888H103.321C103.048 0.528387 102.784 0.61607 102.556 0.766979C102.328 0.917887 102.144 1.12661 102.023 1.37182L88.8835 31.4711C88.6916 31.9371 88.9383 32.3209 89.4409 32.3209H98.5876C99.0993 32.3209 99.6841 31.9371 99.8852 31.4711ZM147.593 23.366L168.244 0.522026H144.093L138.629 9.32154H148.104L127.115 32.33H152.673L162.194 23.366H147.593ZM59.2137 0.512888H43.2229C42.7488 0.54036 42.2904 0.69257 41.8941 0.954115C41.4978 1.21566 41.1776 1.57726 40.9659 2.00232L28.3834 30.8406C28.0179 31.663 28.4657 32.33 29.3611 32.33H37.2834C38.1789 32.33 39.2023 31.663 39.5496 30.8497L43.1406 22.6716H46.8596C48.0201 22.5985 48.5136 23.0279 47.8739 24.3712L45.1144 30.8406C44.7671 31.663 45.2057 32.33 46.1012 32.33H54.0235C54.4994 32.3051 54.9601 32.154 55.3583 31.8922C55.7565 31.6305 56.078 31.2675 56.2897 30.8406L59.8899 22.5162C61.0229 19.8115 59.3873 17.719 57.0115 17.6093C59.1132 16.8509 61.0504 14.7584 61.9184 12.8578L63.7825 8.47174C66.0303 3.37296 64.4313 0.448925 59.2137 0.522026M54.5535 9.61394L52.5798 13.9543C52.1229 14.996 51.465 15.0782 50.8071 15.0508H46.3571L49.3359 8.28899H53.6032C54.6449 8.35295 54.9099 8.72759 54.5535 9.61394ZM90.3364 0.50375H73.3953C73.056 0.521432 72.7275 0.628878 72.4433 0.815108C72.1591 1.00134 71.9295 1.25967 71.7779 1.56371L58.8116 31.2609C58.5649 31.8457 58.8665 32.3117 59.5061 32.3117H77.6442C83.3918 32.2295 86.6905 30.9594 89.313 24.8737L91.177 20.8166C92.639 17.3444 91.2044 15.8366 88.4632 15.398C90.7476 14.6944 92.4654 12.5471 93.2056 10.6556L94.7224 7.43919C96.5865 3.14452 95.0331 0.448925 90.3272 0.50375M82.0211 20.4237L80.8698 22.7355C80.2941 24.3438 79.289 24.7824 77.8727 24.8006H72.5729L75.1131 18.8155H80.4129C81.9115 18.9252 82.4963 19.2907 82.0211 20.4237ZM85.064 9.76928L84.269 11.5968L84.1502 11.8344C84.0182 12.2156 83.7638 12.5424 83.4266 12.7639C83.0894 12.9854 82.6884 13.0891 82.2861 13.0588H77.6899L79.7916 8.21589H84.4792C85.3198 8.27071 85.4569 8.81897 85.064 9.76928ZM116.123 0.512888L112.184 9.32154H117.804C118.188 9.32154 118.371 9.59566 118.215 9.95203L108.392 31.6995C108.228 32.0468 108.42 32.33 108.803 32.33H118.809C119.193 32.33 119.632 32.0468 119.787 31.6904L129.217 9.95203C129.307 9.76918 129.444 9.61361 129.615 9.50123C129.785 9.38884 129.982 9.32368 130.185 9.3124H135.951L141.379 0.512888H116.123ZM33.1076 11.3501L34.3503 8.63622C36.854 2.91608 35.2001 0.458063 30.284 0.522026H18.4508C13.5805 0.458063 9.52341 3.19934 7.27556 8.29813L3.62052 18.6236H0.166504L6.77299 27.5419L17.6924 18.6236H14.9146L18.1219 11.1765C18.6427 9.95203 19.5382 9.36723 20.4977 9.32154H22.3617C22.8003 9.33981 23.1019 9.47688 23.2755 9.66877L29.0687 4.79842L33.1076 11.3501Z" fill="#191825" fill-opacity="0.5"/>
<path d="M6.52636 30.1643L1.66516 24.0055L1.40931 24.5538C-0.847682 29.6891 -0.47304 32.2476 4.3973 32.3207H16.0752C20.9089 32.2476 25.1397 29.6891 27.4058 24.5538L30.8781 16.5949H33.9849L28.685 7.66748L17.857 16.5949H20.8267L18.6337 21.6663C18.1037 22.7445 17.2996 23.3293 16.4407 23.3659H14.8873L6.52636 30.1643Z" fill="#191825" fill-opacity="0.5"/>
<path d="M172.091 0.3302C172.52 0.3302 172.885 0.485539 173.187 0.78708C173.489 1.08862 173.644 1.45412 173.644 1.88359C173.644 2.30392 173.489 2.66943 173.187 2.9801C172.885 3.29078 172.52 3.43698 172.091 3.43698C171.886 3.44013 171.683 3.40119 171.495 3.32259C171.306 3.24399 171.136 3.12741 170.994 2.9801C170.692 2.66943 170.537 2.30392 170.537 1.88359C170.537 1.46326 170.692 1.07948 170.994 0.78708C171.136 0.640211 171.306 0.523921 171.495 0.445352C171.684 0.366784 171.886 0.327598 172.091 0.3302ZM172.091 3.14458C172.258 3.14837 172.425 3.11791 172.58 3.05507C172.736 2.99222 172.877 2.89831 172.995 2.77908C173.115 2.66139 173.209 2.52036 173.272 2.36474C173.335 2.20912 173.365 2.04224 173.361 1.87445C173.364 1.70819 173.333 1.54305 173.27 1.38909C173.207 1.23514 173.114 1.09559 172.995 0.97897C172.877 0.859298 172.736 0.765099 172.581 0.702222C172.425 0.639346 172.258 0.609135 172.091 0.613465C171.924 0.60985 171.759 0.640425 171.605 0.703296C171.451 0.766167 171.311 0.859996 171.195 0.97897C170.948 1.22568 170.83 1.52723 170.83 1.87445C170.83 2.22168 170.948 2.53236 171.195 2.77908C171.442 3.02579 171.743 3.14458 172.091 3.14458ZM172.885 2.70598H172.52L172.063 2.04807H171.871V2.70598H171.542V1.0338H172.063C172.246 1.0338 172.392 1.07948 172.502 1.16172C172.611 1.2531 172.675 1.37189 172.675 1.52723C172.675 1.72825 172.566 1.88359 172.355 1.96583L172.885 2.70598ZM171.88 1.77394H172.054C172.264 1.77394 172.365 1.6917 172.365 1.53636C172.365 1.38102 172.273 1.30792 172.063 1.30792H171.88V1.77394Z" fill="#191825" fill-opacity="0.5"/>
</svg>
