<svg width="212" height="33" viewBox="0 0 212 33" fill="none" xmlns="http://www.w3.org/2000/svg">
<path d="M22.7967 19.5566C24.6184 24.4922 30.109 27.0186 35.046 25.2011C39.9801 23.3709 42.5122 17.886 40.6834 12.949C38.8603 8.00639 33.3782 5.48424 28.4341 7.30595C23.4943 9.13472 20.9722 14.6168 22.7967 19.5566Z" fill="white"/>
<path d="M10.6039 25.7522C15.8699 25.7522 20.1389 21.4832 20.1389 16.2172C20.1389 10.9511 15.8699 6.68213 10.6039 6.68213C5.33783 6.68213 1.06885 10.9511 1.06885 16.2172C1.06885 21.4832 5.33783 25.7522 10.6039 25.7522Z" fill="white"/>
<path d="M12.2294 16.1152C12.2294 17.0867 11.44 17.8832 10.4684 17.8832C9.49259 17.8832 8.70459 17.0881 8.70459 16.1152C8.70459 15.145 9.49259 14.3584 10.4684 14.3584C11.44 14.3598 12.2294 15.145 12.2294 16.1152Z" fill="#191825" fill-opacity="0.5"/>
<path d="M33.478 16.1152C33.478 17.0867 32.6914 17.8832 31.7199 17.8832C30.7412 17.8832 29.9561 17.0881 29.9561 16.1152C29.9561 15.145 30.7412 14.3584 31.7199 14.3584C32.6929 14.3598 33.478 15.145 33.478 16.1152Z" fill="#191825" fill-opacity="0.5"/>
<path d="M5.229 16.1154C5.229 19.0062 7.58028 21.3532 10.471 21.3532C13.3547 21.3532 15.7046 19.0062 15.7046 16.1154C15.7046 13.2318 13.3533 10.8833 10.471 10.8833C7.5817 10.8861 5.229 13.2332 5.229 16.1154ZM7.03518 16.1154C7.03518 14.2245 8.58011 12.6867 10.4738 12.6867C12.3647 12.6867 13.9012 14.2288 13.9012 16.1154C13.9012 18.012 12.3647 19.5527 10.4738 19.5527C8.58011 19.5541 7.03518 18.0148 7.03518 16.1154Z" fill="#191825" fill-opacity="0.5"/>
<path d="M26.481 16.1154C26.481 19.0062 28.8294 21.3532 31.7187 21.3532C34.6038 21.3532 36.9509 19.0062 36.9509 16.1154C36.9509 13.2318 34.6038 10.8833 31.7187 10.8833C28.8308 10.8861 26.481 13.2332 26.481 16.1154ZM28.2871 16.1154C28.2871 14.2245 29.8278 12.6867 31.723 12.6867C33.6139 12.6867 35.1489 14.2288 35.1489 16.1154C35.1489 18.012 33.6139 19.5527 31.723 19.5527C29.825 19.5541 28.2871 18.0148 28.2871 16.1154Z" fill="#191825" fill-opacity="0.5"/>
<path d="M28.0671 6.30223C29.1714 5.89552 30.3012 5.69782 31.4168 5.66675C28.3778 4.30682 24.9377 3.61768 21.1262 3.61768C17.3444 3.61768 13.8535 4.32235 10.8159 5.62156C16.3135 5.7303 20.7831 10.036 21.1686 15.463C21.2618 14.2175 21.5668 12.9861 22.1049 11.8196C23.2897 9.23956 25.4094 7.28228 28.0671 6.30223Z" fill="white"/>
<path d="M40.2653 9.95257C40.7624 7.82442 42.3398 5.69485 42.3398 5.69485L35.2606 5.69061C31.2909 3.12751 26.4697 1.76758 21.1289 1.76758C15.5847 1.76758 10.5785 3.15999 6.63144 5.74145L-0.00439453 5.7471C-0.00439453 5.7471 1.55465 7.85266 2.0588 9.96528C0.768068 11.7206 0.00125419 13.877 0.00125419 16.2184C0.00125419 22.0634 4.75889 26.8182 10.6067 26.8182C13.9494 26.8182 16.9305 25.2606 18.875 22.8401L21.1331 26.2209L23.4081 22.8105C24.432 24.1125 25.7524 25.1688 27.3001 25.8848C29.8745 27.0682 32.7596 27.1854 35.4159 26.2039C40.9022 24.1746 43.7195 18.0585 41.6902 12.5792C41.3344 11.6147 40.8486 10.7377 40.2653 9.95257ZM21.1275 3.61895C24.9389 3.61895 28.379 4.30809 31.418 5.66943C30.301 5.69909 29.1727 5.8982 28.0683 6.30209C25.4106 7.28214 23.2909 9.23942 22.1089 11.8152C21.5709 12.9817 21.2673 14.2131 21.1727 15.4587C20.7843 10.0345 16.3148 5.72874 10.8171 5.61718C13.8533 4.32221 17.3428 3.61895 21.1275 3.61895ZM17.614 20.9549C16.0916 23.2002 13.5158 24.6802 10.6039 24.6802C5.93524 24.6802 2.13647 20.8786 2.13647 16.2198C2.13647 11.5483 5.93665 7.75381 10.6039 7.75381C15.2712 7.75381 19.0699 11.5483 19.0699 16.2198C19.0699 16.5051 19.0148 16.7734 18.9852 17.0488C18.844 18.4793 18.3836 19.8195 17.614 20.9549ZM34.6745 24.1972C32.5534 24.9768 30.253 24.8906 28.1983 23.943C26.7409 23.268 25.5476 22.2103 24.6876 20.897C24.3374 20.366 24.0295 19.8025 23.8021 19.1854C23.5437 18.4878 23.4152 17.769 23.346 17.0445C23.2048 15.5759 23.418 14.0903 24.0507 12.7134C24.9997 10.6587 26.6886 9.09538 28.8097 8.31021C33.1903 6.69467 38.0666 8.94145 39.6849 13.3206C41.3019 17.6998 39.0537 22.576 34.6745 24.1972Z" fill="#191825" fill-opacity="0.5"/>
<path d="M54.8473 3.31682L51.7433 4.38867C51.7433 4.38867 51.7433 8.10553 51.7433 8.4388C51.4185 8.4388 48.3032 8.4388 48.3032 8.4388V11.1544C48.3032 11.1544 51.3225 11.1544 51.6501 11.1544C51.6501 11.5075 51.6501 19.8732 51.6501 19.8732C51.6501 24.0166 53.0609 25.7168 56.5306 25.7168C57.4104 25.7168 58.2506 25.6081 59.0937 25.3779L59.2307 25.344L59.1925 22.5281L58.9553 22.6185C58.2732 22.8543 57.7394 22.9701 57.3271 22.9701C55.6974 22.9701 55.093 22.0536 55.093 19.5795C55.093 19.5795 55.093 11.5061 55.093 11.1587C55.4234 11.1587 59.0626 11.1587 59.0626 11.1587V8.4388C59.0626 8.4388 55.4248 8.4388 55.093 8.4388C55.093 8.1027 55.093 3.23633 55.093 3.23633L54.8473 3.31682Z" fill="#191825" fill-opacity="0.5"/>
<path d="M65.5798 11.1896C65.5798 10.2336 65.5798 8.4387 65.5798 8.4387H62.4307V25.4173H65.8736V16.8948C65.8736 13.322 67.3747 11.3534 70.0946 11.3534C70.4886 11.3534 70.8713 11.4128 71.3373 11.5441L71.5604 11.6076L71.6734 8.25653L70.192 8.14356C68.1966 8.14214 66.5853 9.21964 65.5798 11.1896Z" fill="#191825" fill-opacity="0.5"/>
<path d="M77.8099 8.43728H74.5506V25.4173H77.9935V8.43728H77.8099ZM74.2173 3.46217C74.2173 4.59191 75.138 5.50841 76.2649 5.50841C77.3947 5.50841 78.3126 4.59191 78.3126 3.46217C78.3126 2.33383 77.3947 1.41309 76.2649 1.41309C75.138 1.41027 74.2173 2.33383 74.2173 3.46217Z" fill="#191825" fill-opacity="0.5"/>
<path d="M90.1525 8.03906C87.7899 8.03906 85.8029 9.15751 84.4783 11.1925C84.4783 10.379 84.4783 8.43447 84.4783 8.43447H81.3306V32.33H84.7763C84.7763 32.33 84.7763 23.9854 84.7763 23.0675C86.019 24.7579 87.8012 25.6871 90.0197 25.6871C94.3721 25.6871 97.1837 22.1157 97.1837 16.6011C97.1837 11.4805 94.3565 8.03906 90.1525 8.03906ZM89.1908 22.9023C86.4667 22.9023 84.7749 20.5736 84.7749 16.8327C84.7749 13.2218 86.5599 10.8888 89.3221 10.8888C91.9841 10.8888 93.5756 13.1003 93.5756 16.7974C93.577 20.5609 91.8951 22.9023 89.1908 22.9023Z" fill="#191825" fill-opacity="0.5"/>
<path d="M107.246 8.03906C105.141 8.03906 103.297 8.4373 101.605 9.25071L101.5 9.30155L101.537 12.2403L101.808 12.0878C103.425 11.184 104.956 10.7222 106.35 10.7222C108.844 10.7222 110.276 12.1513 110.276 14.6495C110.276 14.6495 110.276 14.7215 110.276 14.7949C109.972 14.7949 108.306 14.7949 108.306 14.7949C102.637 14.7949 99.519 16.8482 99.519 20.5708C99.519 23.5603 101.77 25.6504 104.993 25.6504C107.364 25.6504 109.198 24.7183 110.506 22.9644C110.506 23.6465 110.506 25.4159 110.506 25.4159H113.617V15.1409C113.615 10.4313 111.473 8.03906 107.246 8.03906ZM110.27 18.2491C110.27 21.1738 108.51 23.0661 105.788 23.0661C104.12 23.0661 102.956 21.9702 102.956 20.4027C102.956 18.3423 104.926 17.2112 108.502 17.2112C108.502 17.2112 109.975 17.2112 110.273 17.2112C110.27 17.4753 110.27 18.2491 110.27 18.2491Z" fill="#191825" fill-opacity="0.5"/>
<path d="M128.238 0.330078C128.238 0.330078 128.238 9.79592 128.238 10.7421C126.969 8.97686 125.202 8.04199 122.933 8.04199C118.72 8.04199 115.89 11.5103 115.89 16.6648C115.89 21.9746 118.761 25.6829 122.863 25.6829C125.294 25.6829 127.189 24.6069 128.502 22.5154C128.502 23.3613 128.502 25.4189 128.502 25.4189H131.685V0.330078H128.238ZM123.756 22.8332C121.132 22.8332 119.502 20.5454 119.502 16.8625C119.502 13.1753 121.146 10.7915 123.694 10.7915C126.538 10.7915 128.235 13.0595 128.235 16.8625C128.238 20.496 126.484 22.8332 123.756 22.8332Z" fill="#191825" fill-opacity="0.5"/>
<path d="M147.07 8.4375L142.188 18.2423L137.675 8.4375H133.795L142.116 25.4176L150.662 8.4375H147.07Z" fill="#191825" fill-opacity="0.5"/>
<path d="M155.675 8.43728H152.414V25.4173H155.861V8.43728H155.675ZM152.085 3.46217C152.085 4.59191 153.004 5.50841 154.133 5.50841C155.267 5.50841 156.18 4.59191 156.18 3.46217C156.18 2.33383 155.264 1.41309 154.133 1.41309C153.006 1.41027 152.085 2.33383 152.085 3.46217Z" fill="#191825" fill-opacity="0.5"/>
<path d="M159.898 12.7914C159.898 15.1794 161.539 16.4376 164.57 17.9204C166.48 18.8595 167.479 19.4131 167.479 20.7363C167.479 22.0934 166.253 22.9704 164.349 22.9704C163.003 22.9704 161.509 22.5919 160.029 21.8646L159.778 21.7404L159.667 24.7342L159.781 24.7765C161.196 25.34 162.683 25.6154 164.219 25.6154C168.43 25.6154 171.149 23.6087 171.149 20.5033C171.149 17.9148 169.427 16.6 166.444 15.2076C164.259 14.181 163.342 13.5836 163.342 12.4948C163.342 11.4639 164.362 10.7917 165.938 10.7917C167.361 10.7917 168.751 11.1081 170.066 11.7351L170.314 11.8494L170.464 8.92059L170.327 8.88105C168.901 8.45739 167.493 8.24415 166.137 8.24415C162.406 8.2385 159.898 10.0687 159.898 12.7914Z" fill="#191825" fill-opacity="0.5"/>
<path d="M181.892 8.03906C176.718 8.03906 173.505 11.4467 173.505 16.9259C173.505 22.408 176.72 25.8099 181.892 25.8099C187.09 25.8099 190.317 22.4066 190.317 16.9259C190.317 11.4481 187.087 8.03906 181.892 8.03906ZM181.921 23.0011C179.062 23.0011 177.141 20.5467 177.141 16.8934C177.141 13.2204 179.062 10.7575 181.921 10.7575C184.828 10.7575 186.705 13.1681 186.705 16.8934C186.705 20.6046 184.831 23.0011 181.921 23.0011Z" fill="#191825" fill-opacity="0.5"/>
<path d="M196.669 11.1896C196.669 10.2336 196.669 8.4387 196.669 8.4387H193.52V25.4173H196.962V16.8948C196.962 13.322 198.455 11.3534 201.179 11.3534C201.57 11.3534 201.95 11.4128 202.408 11.5441L202.641 11.6076L202.748 8.25653L201.272 8.14356C199.285 8.14214 197.677 9.21964 196.669 11.1896Z" fill="#191825" fill-opacity="0.5"/>
<path d="M210.961 7.686C211.526 8.25793 211.823 9.01768 211.823 9.83534C211.823 10.6897 211.503 11.4551 210.916 12.0186C210.303 12.6004 209.543 12.9125 208.75 12.9125C207.921 12.9125 207.158 12.5863 206.565 11.9734C205.999 11.3859 205.678 10.6346 205.678 9.83251C205.678 9.01486 206.004 8.22263 206.614 7.62104C207.186 7.0604 207.922 6.75537 208.75 6.75537C209.598 6.75678 210.371 7.07876 210.961 7.686ZM206.996 8.02351C206.499 8.5206 206.233 9.16031 206.233 9.83534C206.233 10.4934 206.479 11.0992 206.953 11.5822C207.429 12.0793 208.061 12.3476 208.737 12.3476C209.395 12.3476 210.028 12.0948 210.516 11.6203C210.996 11.1585 211.261 10.5259 211.261 9.83392C211.261 9.15749 211.015 8.54319 210.549 8.07293C210.06 7.57585 209.44 7.31459 208.75 7.31459C208.069 7.31459 207.472 7.55749 206.996 8.02351ZM208.806 8.08141C209.769 8.08141 210.264 8.43022 210.264 9.06146C210.264 9.49641 210.005 9.83392 209.546 9.97232L210.303 11.4537H209.278L208.647 10.1164H208.38V11.4537H207.451V8.08L208.806 8.08141ZM208.373 9.56702H208.696C209.11 9.56702 209.309 9.42157 209.309 9.13207C209.309 8.80162 209.1 8.66605 208.647 8.66605H208.373V9.56702Z" fill="#191825" fill-opacity="0.5"/>
</svg>
