<svg width="114" height="33" viewBox="0 0 114 33" fill="none" xmlns="http://www.w3.org/2000/svg">
<path d="M54.9285 25.3669H51.4136C51.3913 25.3669 51.3913 25.3669 51.3802 25.3558L48.3546 21.6628L45.3291 25.3558C45.318 25.3669 45.3068 25.3669 45.2957 25.3669H42.4815C42.4593 25.3669 42.4481 25.3558 42.437 25.3446C42.437 25.3335 42.437 25.3113 42.4481 25.3001L46.9086 19.8275L42.5038 14.4104C42.4926 14.3881 42.4926 14.377 42.4926 14.3548C42.5038 14.3436 42.5149 14.3325 42.526 14.3325H46.041C46.0521 14.3325 46.0632 14.3436 46.0743 14.3548L48.7328 17.6473L51.4358 14.3548C51.4469 14.3436 51.4581 14.3325 51.4692 14.3325H54.3279C54.339 14.3325 54.3612 14.3436 54.3724 14.3548C54.3835 14.377 54.3724 14.3881 54.3612 14.4104L50.19 19.427L54.973 25.3001C54.9842 25.3113 54.9842 25.3335 54.9842 25.3446C54.9619 25.3669 54.9508 25.3669 54.9285 25.3669Z" fill="#191825" fill-opacity="0.5"/>
<path d="M73.9381 16.268C72.3808 16.268 71.3241 17.2135 71.0126 18.8486H76.3074V18.7374C76.3074 17.4359 75.3396 16.268 73.9381 16.268ZM79.0326 20.5394C79.0215 20.5505 79.0103 20.5616 78.9992 20.5616H70.957C71.1239 22.4303 72.3363 23.4982 74.3052 23.4982C75.5176 23.4982 76.8079 23.0866 78.621 22.1189C78.6544 22.0966 78.6878 22.13 78.6878 22.1634V24.6327C78.6878 24.655 78.6766 24.6661 78.6655 24.6661C76.9748 25.378 75.2729 25.8674 73.9381 25.8674C70.4787 25.8674 67.9648 23.3424 67.9648 19.872C67.9648 16.4015 70.4787 13.8765 73.9381 13.8765C77.0971 13.8765 79.1216 16.001 79.1216 18.9265C79.1216 19.4048 79.0437 20.506 79.0326 20.5394Z" fill="#191825" fill-opacity="0.5"/>
<path d="M95.3617 12.0413C94.3717 12.0413 93.5708 11.2515 93.5708 10.2838C93.5708 9.28271 94.3717 8.4707 95.3617 8.4707C96.3516 8.4707 97.1525 9.28271 97.1525 10.2838C97.1525 11.2515 96.3516 12.0413 95.3617 12.0413ZM93.9156 25.3671C93.8823 25.3671 93.8711 25.3559 93.8711 25.3226V14.3661C93.8711 14.3438 93.8823 14.3216 93.9045 14.3216H96.8077C96.8299 14.3216 96.8411 14.3438 96.8411 14.3661V25.3226C96.8411 25.3559 96.8188 25.3671 96.7966 25.3671H93.9156Z" fill="#191825" fill-opacity="0.5"/>
<path d="M60.2452 23.7206C59.7224 23.7206 59.1884 23.6428 58.5655 23.487L58.5767 16.4571C59.2997 16.2235 59.9226 16.1234 60.5455 16.1234C62.5588 16.1234 63.9047 17.6028 63.9047 19.8163C63.9047 22.1856 62.4698 23.7206 60.2452 23.7206ZM61.0349 13.8765C60.2118 13.8765 59.3887 14.0211 58.521 14.3214H55.629C55.6067 14.3214 55.5845 14.3436 55.5845 14.3659V32.3301C56.4521 32.2077 57.5199 31.8963 58.5655 31.1622V25.7006C59.2774 25.8007 59.867 25.8674 60.4343 25.8674C64.3942 25.8674 66.9525 23.4982 66.9525 19.8275C66.9525 16.3236 64.5165 13.8765 61.0349 13.8765Z" fill="#191825" fill-opacity="0.5"/>
<path d="M88.6321 22.8086C87.7311 23.2869 86.9191 23.5094 86.1627 23.5094C84.3719 23.5094 83.2929 22.2413 83.2929 20.1168C83.2929 17.6696 84.6611 16.079 86.7856 16.079C87.3752 16.079 87.9425 16.2236 88.6321 16.5351V22.8086ZM88.6321 8.52624V14.2548C87.7867 14.0101 87.0415 13.8988 86.2851 13.8988C82.8369 13.8988 80.2451 16.4906 80.2451 19.9388C80.2451 23.3648 82.5365 25.8564 85.6956 25.8564C86.7856 25.8564 87.809 25.5783 89.0103 24.9666V25.9565C89.8001 25.8008 90.7122 25.4894 91.6132 24.8442V7.34717C90.7344 7.46952 89.6888 7.76986 88.6321 8.52624Z" fill="#191825" fill-opacity="0.5"/>
<path d="M106.908 22.786C106.029 23.2865 105.284 23.5313 104.617 23.5313C102.692 23.5313 101.547 22.2632 101.547 20.1386C101.547 17.7249 102.904 16.1009 104.917 16.1009C105.451 16.1009 106.107 16.3122 106.908 16.7349V22.786ZM109.889 14.1876C109.889 14.1209 109.833 14.0653 109.767 14.0653H107.42C107.353 14.0653 107.286 14.1209 107.286 14.1876V14.5881H107.231C106.152 14.1098 105.217 13.8984 104.316 13.8984C101.068 13.8984 98.521 16.5903 98.521 20.0385C98.521 23.5201 100.801 25.856 104.194 25.856C105.095 25.856 106.263 25.7893 107.353 24.5435V25.9561C108.12 25.7893 109.033 25.4667 109.889 24.8438V14.1876Z" fill="#191825" fill-opacity="0.5"/>
<path d="M34.4502 22.6307H41.736C41.6248 23.4427 41.3467 24.3993 40.7238 25.3671H33.1488C32.2255 25.3671 31.458 24.644 31.369 23.7431C31.369 23.7319 31.3579 23.7208 31.3579 23.6986V9.32719C31.3579 9.31607 31.369 9.30495 31.369 9.29382C31.458 8.38171 32.2255 7.65869 33.1488 7.65869H41.7249C41.6136 8.4707 41.3356 9.44955 40.7015 10.4173H34.4502V14.3327H40.6459C40.6682 14.3327 40.6904 14.3549 40.6904 14.3772V17.0913C40.6904 17.1135 40.6682 17.1358 40.6459 17.1358H34.4502V22.6307Z" fill="#191825" fill-opacity="0.5"/>
<path d="M25.3291 25.6005C24.6061 25.6005 24.1612 25.0332 24.1612 24.3435C24.1612 23.6094 24.6728 23.0866 25.3291 23.0866C25.9743 23.0866 26.4859 23.5983 26.4859 24.3435C26.4859 25.0888 25.9743 25.6005 25.3291 25.6005ZM25.3291 22.9531C24.595 22.9531 23.9609 23.5093 23.9609 24.3435C23.9609 25.1333 24.5282 25.734 25.3291 25.734C26.0521 25.734 26.6862 25.1778 26.6862 24.3435C26.6862 23.5093 26.0633 22.9531 25.3291 22.9531Z" fill="#191825" fill-opacity="0.5"/>
<path d="M25.0063 24.2323V23.7206H25.3511C25.5291 23.7206 25.7293 23.7429 25.7293 23.9542C25.7293 24.21 25.5402 24.2212 25.3289 24.2212C25.3178 24.2323 25.0063 24.2323 25.0063 24.2323ZM25.9741 23.9876C25.9741 23.6539 25.7738 23.5093 25.3734 23.5093H24.7505V25.1555H25.0174V24.4548H25.2733L25.696 25.1555H26.0074L25.5514 24.4325C25.7961 24.4103 25.9741 24.2879 25.9741 23.9876Z" fill="#191825" fill-opacity="0.5"/>
<path d="M112.292 16.1455C111.568 16.1455 111.124 15.5782 111.124 14.8886C111.124 14.1544 111.635 13.6316 112.292 13.6316C112.937 13.6316 113.448 14.1433 113.448 14.8886C113.448 15.6338 112.937 16.1455 112.292 16.1455ZM112.292 13.5093C111.557 13.5093 110.923 14.0654 110.923 14.8997C110.923 15.6895 111.491 16.2901 112.292 16.2901C113.015 16.2901 113.649 15.7339 113.649 14.8997C113.649 14.0543 113.015 13.5093 112.292 13.5093Z" fill="#191825" fill-opacity="0.5"/>
<path d="M111.958 14.7773V14.2768H112.302C112.48 14.2768 112.681 14.299 112.681 14.5104C112.681 14.7662 112.492 14.7773 112.28 14.7773H111.958ZM112.936 14.5437C112.936 14.21 112.736 14.0654 112.336 14.0654H111.713V15.7117H111.98V15.0109H112.236L112.658 15.7117H112.97L112.514 14.9887C112.747 14.9664 112.936 14.8441 112.936 14.5437Z" fill="#191825" fill-opacity="0.5"/>
<path d="M15.9299 10.4059L15.4071 8.91541L10.9132 2.91993L11.7141 2.71971L19.4449 9.40484L23.9943 8.10341C24.5282 7.96993 25.14 7.93656 25.5961 7.93656C24.1723 4.85539 21.5472 2.31927 18.0989 1.0957C11.2803 -1.34031 3.77206 2.23028 1.34717 9.06002C0.59078 11.1735 0.423929 13.3536 0.735383 15.4226L11.6251 11.6406L15.9299 10.4059Z" fill="#191825" fill-opacity="0.5"/>
<path d="M26.0856 9.11572C25.6851 9.37156 25.0956 9.71638 24.5172 9.90548L19.9566 11.2069L16.9199 20.9732L16.1302 21.2291L16.7753 13.7764L16.4194 12.2303L12.148 13.4538L0.84668 16.0901C1.74767 20.4282 4.81772 24.2212 9.30043 25.8119C16.1302 28.2479 23.6273 24.6773 26.0633 17.8476C27.1089 14.9221 27.0422 11.8521 26.0856 9.11572Z" fill="#191825" fill-opacity="0.5"/>
<path d="M16.4085 12.219L16.7645 13.7651L16.1193 21.2178L16.9091 20.9619L19.9458 11.1956L24.5063 9.89418C25.0847 9.70508 25.6743 9.37138 26.0747 9.10442C25.9301 8.70398 25.7744 8.31466 25.5964 7.92535C25.1292 7.92535 24.5286 7.94759 23.9947 8.0922L19.4452 9.39363L11.7145 2.7085L10.9136 2.90872L15.3963 8.9042L15.9191 10.3947L11.6144 11.6294L0.724609 15.4114C0.757979 15.6338 0.802473 15.8674 0.846966 16.0899L12.1372 13.4314L16.4085 12.219Z" fill="white"/>
</svg>
