<svg width="190" height="33" viewBox="0 0 190 33" fill="none" xmlns="http://www.w3.org/2000/svg">
<mask id="mask0_2059_2390" style="mask-type:luminance" maskUnits="userSpaceOnUse" x="0" y="0" width="190" height="33">
<path d="M189.016 0.330078H0.412598V32.3301H189.016V0.330078Z" fill="white"/>
</mask>
<g mask="url(#mask0_2059_2390)">
<mask id="mask1_2059_2390" style="mask-type:luminance" maskUnits="userSpaceOnUse" x="0" y="0" width="190" height="33">
<path d="M189.016 0.330078H0.412598V32.3301H189.016V0.330078Z" fill="white"/>
</mask>
<g mask="url(#mask1_2059_2390)">
<path d="M74.3696 3.83345C74.3696 2.25315 75.6515 0.963867 77.2392 0.963867C78.8195 0.963867 80.1088 2.24579 80.1088 3.83345C80.0535 5.41374 78.72 6.64776 77.1361 6.59251C75.6331 6.53725 74.4286 5.3327 74.3696 3.83345Z" fill="#191825" fill-opacity="0.5"/>
</g>
<mask id="mask2_2059_2390" style="mask-type:luminance" maskUnits="userSpaceOnUse" x="0" y="0" width="190" height="33">
<path d="M189.016 0.330078H0.412598V32.3301H189.016V0.330078Z" fill="white"/>
</mask>
<g mask="url(#mask2_2059_2390)">
<path d="M119.594 22.9477C119.594 21.3564 120.876 20.0708 122.452 20.0708C124.04 20.0708 125.326 21.3564 125.326 22.9477C125.326 24.5354 124.04 25.821 122.452 25.821C120.876 25.821 119.594 24.5317 119.594 22.9477Z" fill="#191825" fill-opacity="0.5"/>
</g>
<mask id="mask3_2059_2390" style="mask-type:luminance" maskUnits="userSpaceOnUse" x="0" y="0" width="190" height="33">
<path d="M189.016 0.330078H0.412598V32.3301H189.016V0.330078Z" fill="white"/>
</mask>
<g mask="url(#mask3_2059_2390)">
<path d="M27.3403 21.7066C24.876 21.7066 23.1557 19.7469 23.1557 16.9436C23.1557 14.1441 24.8723 12.1844 27.3403 12.1844C29.8194 12.1844 31.5581 14.1441 31.5581 16.9436C31.5544 19.7911 29.86 21.7066 27.3403 21.7066ZM27.3403 7.99971C22.1206 7.99971 18.3301 11.7607 18.3301 16.9436C18.3301 22.1266 22.1243 25.8876 27.3403 25.8876C32.5859 25.8876 36.3874 22.1266 36.3874 16.9473C36.3874 11.7607 32.5785 7.99971 27.3403 7.99971ZM68.8221 17.3931C68.6416 17.0431 68.4095 16.7153 68.1406 16.4279L67.9822 16.2622L68.148 16.1038C68.3874 15.8496 68.6342 15.5512 68.8663 15.205L73.4745 8.35334H67.8791L64.4164 13.7131C64.2212 14.0041 63.827 14.1404 63.234 14.1404H62.442V4.00661C62.442 1.9806 61.1822 1.70801 59.8155 1.70801H57.4801L57.4838 25.6224H62.4383V18.454H62.9024C63.466 18.454 63.8491 18.5203 64.0296 18.826L66.7629 23.9868C67.5291 25.3866 68.2879 25.6261 69.7172 25.6261H73.5261L70.6934 20.9515L68.8221 17.3931ZM92.8912 7.96287C90.3678 7.96287 88.7581 9.0827 87.8593 10.0331L87.5609 10.3388L87.4541 9.92626C87.1888 8.90957 86.2974 8.35703 84.9529 8.35703H82.7316L82.7463 25.6261H87.6714V17.6693C87.6714 16.8884 87.7709 16.218 87.9771 15.5991C88.526 13.7352 90.0547 12.5711 91.9629 12.5711C93.499 12.5711 94.1031 13.3815 94.1031 15.4812V23.0033C94.1031 24.7898 94.9282 25.6297 96.7222 25.6297H99.0613L99.0502 14.645C99.0502 10.2652 96.9174 7.96287 92.8912 7.96287ZM77.3019 8.35334H74.9664L74.9812 21.7066V25.6224H77.4713L77.5597 25.6261L78.7238 25.6224H79.8768V25.6187H79.8878L79.8989 10.9798C79.8915 9.21163 79.0479 8.35334 77.3019 8.35334ZM46.6759 21.7066C44.2115 21.7066 42.4912 19.7469 42.4912 16.9436C42.4912 14.1441 44.2115 12.1844 46.6759 12.1844C49.1513 12.1844 50.8937 14.1441 50.8937 16.9436C50.89 19.7911 49.1955 21.7066 46.6759 21.7066ZM46.6759 7.99971C41.4524 7.99971 37.6583 11.7607 37.6583 16.9436C37.6583 22.1266 41.4524 25.8876 46.6759 25.8876C51.9104 25.8876 55.723 22.1266 55.723 16.9473C55.723 11.7607 51.9141 7.99971 46.6759 7.99971Z" fill="#191825" fill-opacity="0.5"/>
</g>
</g>
<mask id="mask4_2059_2390" style="mask-type:luminance" maskUnits="userSpaceOnUse" x="0" y="0" width="190" height="33">
<path d="M189.016 0.330078H0.412598V32.3301H189.016V0.330078Z" fill="white"/>
</mask>
<g mask="url(#mask4_2059_2390)">
<mask id="mask5_2059_2390" style="mask-type:luminance" maskUnits="userSpaceOnUse" x="0" y="0" width="189" height="33">
<path d="M188.976 0.959961H0.412598V32.2895H188.976V0.959961Z" fill="white"/>
</mask>
<g mask="url(#mask5_2059_2390)">
<mask id="mask6_2059_2390" style="mask-type:luminance" maskUnits="userSpaceOnUse" x="0" y="0" width="190" height="33">
<path d="M189.016 0.330078H0.412598V32.3301H189.016V0.330078Z" fill="white"/>
</mask>
<g mask="url(#mask6_2059_2390)">
<path d="M152.205 21.7064C149.741 21.7064 148.02 19.7467 148.02 16.9435C148.02 14.1439 149.741 12.1842 152.205 12.1842C154.684 12.1842 156.423 14.1439 156.423 16.9435C156.423 19.7909 154.725 21.7064 152.205 21.7064ZM152.205 7.99951C146.982 7.99951 143.188 11.7605 143.188 16.9435C143.188 22.1264 146.974 25.8874 152.205 25.8874C157.443 25.8874 161.252 22.1264 161.252 16.9471C161.252 11.7605 157.44 7.99951 152.205 7.99951Z" fill="#191825" fill-opacity="0.5"/>
</g>
<mask id="mask7_2059_2390" style="mask-type:luminance" maskUnits="userSpaceOnUse" x="0" y="0" width="190" height="33">
<path d="M189.016 0.330078H0.412598V32.3301H189.016V0.330078Z" fill="white"/>
</mask>
<g mask="url(#mask7_2059_2390)">
<path d="M109.427 20.94C106.734 20.94 105.78 18.5935 105.78 16.3943C105.78 15.4218 106.027 12.2649 109.177 12.2649C110.739 12.2649 112.82 12.7143 112.82 16.5527C112.816 20.1811 110.971 20.94 109.427 20.94ZM115.373 8.30866C114.437 8.30866 113.719 8.68071 113.358 9.36219L113.225 9.62741L112.997 9.42481C112.201 8.73597 110.775 7.92188 108.466 7.92188C103.861 7.92188 100.763 11.3772 100.763 16.5269C100.763 21.6693 103.972 25.2609 108.561 25.2609C110.127 25.2609 111.368 24.8925 112.348 24.1484L112.724 23.8648V24.3437C112.724 26.6533 111.232 27.9242 108.528 27.9242C107.21 27.9242 106.016 27.6037 105.217 27.3127C104.174 26.9959 103.559 27.2611 103.139 28.3036L102.745 29.2687L102.192 30.6796L102.535 30.8601C104.266 31.781 106.521 32.3262 108.554 32.3262C112.746 32.3262 117.642 30.1823 117.642 24.1411L117.656 8.29761H115.373" fill="#191825" fill-opacity="0.5"/>
</g>
</g>
</g>
<mask id="mask8_2059_2390" style="mask-type:luminance" maskUnits="userSpaceOnUse" x="0" y="0" width="190" height="33">
<path d="M189.016 0.330078H0.412598V32.3301H189.016V0.330078Z" fill="white"/>
</mask>
<g mask="url(#mask8_2059_2390)">
<mask id="mask9_2059_2390" style="mask-type:luminance" maskUnits="userSpaceOnUse" x="0" y="0" width="190" height="33">
<path d="M189.016 0.330078H0.412598V32.3301H189.016V0.330078Z" fill="white"/>
</mask>
<g mask="url(#mask9_2059_2390)">
<path d="M9.00659 21.504L4.99508 21.5003V16.7115C4.99508 15.6838 5.39291 15.157 6.26594 15.0318H8.99922C10.9479 15.0318 12.2077 16.2621 12.2151 18.2513C12.2151 20.2957 10.9847 21.504 9.00659 21.504ZM4.99508 8.58168V7.32187C4.99508 6.21677 5.45922 5.69369 6.48696 5.62738H8.53876C10.2959 5.62738 11.3494 6.68091 11.3494 8.4417C11.3494 9.78624 10.6274 11.3518 8.60139 11.3518H4.99508V8.58168ZM14.1195 13.3631L13.3975 12.9542L14.0274 12.4127C14.7678 11.7828 15.9945 10.3572 15.9945 7.9002C15.9945 4.13918 13.0807 1.71533 8.56823 1.71533H2.83645C1.49928 1.76322 0.427332 2.85727 0.412598 4.19444V25.5302H8.67506C13.6922 25.5302 16.9265 22.8006 16.9265 18.5718C16.9265 16.3026 15.8766 14.354 14.1195 13.3631Z" fill="#191825" fill-opacity="0.5"/>
</g>
<mask id="mask10_2059_2390" style="mask-type:luminance" maskUnits="userSpaceOnUse" x="0" y="0" width="190" height="33">
<path d="M189.016 0.330078H0.412598V32.3301H189.016V0.330078Z" fill="white"/>
</mask>
<g mask="url(#mask10_2059_2390)">
<path d="M183.244 8.01784C181.188 8.02153 179.24 8.96823 177.958 10.5817L177.601 11.0311L177.321 10.5264C176.407 8.86141 174.841 8.02153 172.653 8.02153C170.366 8.02153 168.83 9.29608 168.115 10.0586L167.651 10.5633L167.47 9.89651C167.213 8.93876 166.358 8.412 165.069 8.412H162.998L162.976 25.6147H167.677V18.019C167.677 17.3522 167.758 16.6966 167.924 16.0077C168.373 14.1732 169.607 12.1988 171.681 12.394C172.955 12.5193 173.582 13.5065 173.582 15.411V25.611H178.315V18.0153C178.315 17.1828 178.393 16.5566 178.58 15.9377C178.956 14.1843 180.249 12.3867 182.249 12.3867C183.697 12.3867 184.235 13.2044 184.235 15.411V23.0951C184.235 24.8301 185.008 25.611 186.747 25.611H188.957L188.961 14.63C188.976 10.2391 187.042 8.01784 183.244 8.01784ZM140.466 19.6398C140.451 19.6545 138.428 21.7911 135.765 21.7911C133.338 21.7911 130.888 20.3029 130.888 16.9802C130.888 14.1106 132.789 12.103 135.511 12.103C136.395 12.103 137.397 12.4198 137.555 12.9503L137.578 13.0387C137.784 13.7938 138.473 14.3132 139.25 14.3095L141.825 14.3132V12.0588C141.825 9.08611 138.049 8.01416 135.504 8.01416C130.067 8.01416 126.125 11.7973 126.125 17.0097C126.125 22.2184 130.026 26.0015 135.404 26.0015C140.071 26.0015 142.606 22.933 142.632 22.9072L142.764 22.7415L140.723 19.3562L140.466 19.6398Z" fill="#191825" fill-opacity="0.5"/>
</g>
</g>
</svg>
