<svg width="65" height="171" viewBox="0 0 65 171" fill="none" xmlns="http://www.w3.org/2000/svg">
<g clip-path="url(#clip0_2058_1471)">
<path d="M44.0254 170.703L65 170.703L54.5127 160.216L44.0254 170.703Z" fill="#FF5722"/>
<path d="M44.0254 135.165L65 135.165L54.5127 124.677L44.0254 135.165Z" fill="#FF5722"/>
<path d="M44.0254 99.6108L65 99.6108L54.5127 89.1235L44.0254 99.6108Z" fill="#FF5722"/>
<path d="M44.0254 64.0723L65 64.0723L54.5127 53.585L44.0254 64.0723Z" fill="#FF5722"/>
<path d="M44.0254 28.5334L65 28.5334L54.5127 18.031L44.0254 28.5334Z" fill="#FF5722"/>
<path d="M0.000507355 153.426L20.9751 153.426L10.4878 142.939L0.000507355 153.426Z" fill="#FF5722"/>
<path d="M0.000507355 117.873L20.9751 117.873L10.4878 107.385L0.000507355 117.873Z" fill="#FF5722"/>
<path d="M0.000507355 82.334L20.9751 82.334L10.4878 71.8467L0.000507355 82.334Z" fill="#FF5722"/>
<path d="M0.000507355 46.7954L20.9751 46.7954L10.4878 36.3081L0.000507355 46.7954Z" fill="#FF5722"/>
<path d="M0.000507355 11.2417L20.9751 11.2417L10.4878 0.754408L0.000507355 11.2417Z" fill="#FF5722"/>
</g>
<defs>
<clipPath id="clip0_2058_1471">
<rect width="65" height="169.949" fill="white" transform="translate(65 170.703) rotate(180)"/>
</clipPath>
</defs>
</svg>
