<svg width="179" height="176" viewBox="0 0 179 176" fill="none" xmlns="http://www.w3.org/2000/svg">
<g clip-path="url(#clip0_2058_1666)">
<path d="M4.71191 128.065C3.30997 128.065 2.1709 129.243 2.1709 130.69C2.1709 132.137 3.30997 133.315 4.71191 133.315C6.11384 133.315 7.25292 132.137 7.25292 130.69C7.25292 129.243 6.11384 128.065 4.71191 128.065Z" fill="#FF5722"/>
<path d="M48.1914 133.315C49.5948 133.315 50.7324 132.14 50.7324 130.69C50.7324 129.24 49.5948 128.065 48.1914 128.065C46.788 128.065 45.6504 129.24 45.6504 130.69C45.6504 132.14 46.788 133.315 48.1914 133.315Z" fill="#FF5722"/>
<path d="M26.4517 128.065C25.0497 128.065 23.9106 129.243 23.9106 130.69C23.9106 132.137 25.0497 133.315 26.4517 133.315C27.8536 133.315 28.9927 132.137 28.9927 130.69C28.9927 129.243 27.8536 128.065 26.4517 128.065Z" fill="#FF5722"/>
<path d="M26.0918 106.728C24.6899 106.728 23.5508 107.905 23.5508 109.353C23.5508 110.8 24.6899 111.977 26.0918 111.977C27.4937 111.977 28.6328 110.8 28.6328 109.353C28.6328 107.905 27.4937 106.728 26.0918 106.728Z" fill="#FF5722"/>
<path d="M4.35204 106.728C2.95011 106.728 1.81104 107.905 1.81104 109.353C1.81104 110.8 2.95011 111.977 4.35204 111.977C5.75398 111.977 6.89305 110.8 6.89305 109.353C6.89305 107.905 5.75398 106.728 4.35204 106.728Z" fill="#FF5722"/>
<path d="M69.5713 106.728C68.1693 106.728 67.0303 107.905 67.0303 109.353C67.0303 110.8 68.1693 111.977 69.5713 111.977C70.9732 111.977 72.1123 110.8 72.1123 109.353C72.1123 107.905 70.9732 106.728 69.5713 106.728Z" fill="#FF5722"/>
<path d="M47.8315 106.728C46.4296 106.728 45.2905 107.905 45.2905 109.353C45.2905 110.8 46.4296 111.977 47.8315 111.977C49.2335 111.977 50.3725 110.8 50.3725 109.353C50.3725 107.905 49.2335 106.728 47.8315 106.728Z" fill="#FF5722"/>
<path d="M4.71191 170.76C3.30997 170.76 2.1709 171.938 2.1709 173.385C2.1709 174.832 3.30997 176.01 4.71191 176.01C6.11384 176.01 7.25292 174.832 7.25292 173.385C7.25292 171.938 6.11384 170.76 4.71191 170.76Z" fill="#FF5722"/>
<path d="M26.0918 149.413C24.6899 149.413 23.5508 150.59 23.5508 152.038C23.5508 153.485 24.6899 154.662 26.0918 154.662C27.4937 154.662 28.6328 153.485 28.6328 152.038C28.6328 150.59 27.4937 149.413 26.0918 149.413Z" fill="#FF5722"/>
<path d="M4.35204 149.413C2.95011 149.413 1.81104 150.59 1.81104 152.038C1.81104 153.485 2.95011 154.662 4.35204 154.662C5.75398 154.662 6.89305 153.485 6.89305 152.038C6.89305 150.59 5.75398 149.413 4.35204 149.413Z" fill="#FF5722"/>
<path d="M90.9507 85.3802C89.5487 85.3802 88.4097 86.5579 88.4097 88.005C88.4097 89.4521 89.5487 90.6298 90.9507 90.6298C92.3526 90.6298 93.4917 89.4521 93.4917 88.005C93.4917 86.5579 92.3526 85.3802 90.9507 85.3802Z" fill="#FF5722"/>
<path d="M47.4712 85.3802C46.0692 85.3802 44.9302 86.5579 44.9302 88.005C44.9302 89.4521 46.0692 90.6298 47.4712 90.6298C48.8731 90.6298 50.0122 89.4521 50.0122 88.005C50.0122 86.5579 48.8731 85.3802 47.4712 85.3802Z" fill="#FF5722"/>
<path d="M69.2109 90.6298C70.6143 90.6298 71.7519 89.4547 71.7519 88.005C71.7519 86.5554 70.6143 85.3802 69.2109 85.3802C67.8076 85.3802 66.6699 86.5554 66.6699 88.005C66.6699 89.4547 67.8076 90.6298 69.2109 90.6298Z" fill="#FF5722"/>
<path d="M25.7217 85.3802C24.3197 85.3802 23.1807 86.5579 23.1807 88.005C23.1807 89.4521 24.3197 90.6298 25.7217 90.6298C27.1236 90.6298 28.2627 89.4521 28.2627 88.005C28.2627 86.5579 27.1333 85.3802 25.7217 85.3802Z" fill="#FF5722"/>
<path d="M3.98193 85.3802C2.57999 85.3802 1.44092 86.5579 1.44092 88.005C1.44092 89.4521 2.57999 90.6298 3.98193 90.6298C5.38386 90.6298 6.52294 89.4521 6.52294 88.005C6.52294 86.5579 5.38386 85.3802 3.98193 85.3802Z" fill="#FF5722"/>
<path d="M90.5806 64.0327C89.1786 64.0327 88.0396 65.2104 88.0396 66.6575C88.0396 68.1046 89.1786 69.2823 90.5806 69.2823C91.9825 69.2823 93.1216 68.1046 93.1216 66.6575C93.1216 65.2104 91.9825 64.0327 90.5806 64.0327Z" fill="#FF5722"/>
<path d="M68.8408 64.0327C67.4389 64.0327 66.2998 65.2104 66.2998 66.6575C66.2998 68.1046 67.4389 69.2823 68.8408 69.2823C70.2428 69.2823 71.3818 68.1046 71.3818 66.6575C71.3818 65.2104 70.2428 64.0327 68.8408 64.0327Z" fill="#FF5722"/>
<path d="M47.1011 64.0327C45.6991 64.0327 44.5601 65.2104 44.5601 66.6575C44.5601 68.1046 45.6991 69.2823 47.1011 69.2823C48.503 69.2823 49.6421 68.1046 49.6421 66.6575C49.6421 65.2104 48.503 64.0327 47.1011 64.0327Z" fill="#FF5722"/>
<path d="M112.33 64.0327C110.928 64.0327 109.789 65.2104 109.789 66.6575C109.789 68.1046 110.928 69.2823 112.33 69.2823C113.732 69.2823 114.871 68.1046 114.871 66.6575C114.871 65.2104 113.732 64.0327 112.33 64.0327Z" fill="#FF5722"/>
<path d="M3.62158 64.0327C2.21964 64.0327 1.08057 65.2104 1.08057 66.6575C1.08057 68.1046 2.21964 69.2823 3.62158 69.2823C5.02351 69.2823 6.16259 68.1046 6.16259 66.6575C6.16259 65.2104 5.02351 64.0327 3.62158 64.0327Z" fill="#FF5722"/>
<path d="M25.3613 64.0327C23.9594 64.0327 22.8203 65.2104 22.8203 66.6575C22.8203 68.1046 23.9594 69.2823 25.3613 69.2823C26.7633 69.2823 27.9023 68.1046 27.9023 66.6575C27.9023 65.2104 26.7633 64.0327 25.3613 64.0327Z" fill="#FF5722"/>
<path d="M3.26122 42.6851C1.85929 42.6851 0.720215 43.8627 0.720215 45.3098C0.720215 46.757 1.85929 47.9346 3.26122 47.9346C4.66316 47.9346 5.80223 46.757 5.80223 45.3098C5.80223 43.8627 4.66316 42.6851 3.26122 42.6851Z" fill="#FF5722"/>
<path d="M90.2202 47.9346C91.6236 47.9346 92.7612 46.7595 92.7612 45.3098C92.7612 43.8602 91.6236 42.6851 90.2202 42.6851C88.8168 42.6851 87.6792 43.8602 87.6792 45.3098C87.6792 46.7595 88.8168 47.9346 90.2202 47.9346Z" fill="#FF5722"/>
<path d="M133.7 47.9346C135.103 47.9346 136.241 46.7595 136.241 45.3098C136.241 43.8602 135.103 42.6851 133.7 42.6851C132.296 42.6851 131.159 43.8602 131.159 45.3098C131.159 46.7595 132.296 47.9346 133.7 47.9346Z" fill="#FF5722"/>
<path d="M68.4805 42.6851C67.0785 42.6851 65.9395 43.8627 65.9395 45.3098C65.9395 46.757 67.0785 47.9346 68.4805 47.9346C69.8824 47.9346 71.0215 46.757 71.0215 45.3098C71.0215 43.8627 69.8824 42.6851 68.4805 42.6851Z" fill="#FF5722"/>
<path d="M46.7407 42.6851C45.3388 42.6851 44.1997 43.8627 44.1997 45.3098C44.1997 46.757 45.3388 47.9346 46.7407 47.9346C48.1426 47.9346 49.2817 46.757 49.2817 45.3098C49.2817 43.8627 48.1426 42.6851 46.7407 42.6851Z" fill="#FF5722"/>
<path d="M25.001 42.6851C23.599 42.6851 22.46 43.8627 22.46 45.3098C22.46 46.757 23.599 47.9346 25.001 47.9346C26.4029 47.9346 27.542 46.757 27.542 45.3098C27.542 43.8627 26.4029 42.6851 25.001 42.6851Z" fill="#FF5722"/>
<path d="M111.96 42.6851C110.558 42.6851 109.419 43.8627 109.419 45.3098C109.419 46.757 110.558 47.9346 111.96 47.9346C113.362 47.9346 114.501 46.757 114.501 45.3098C114.501 43.8627 113.362 42.6851 111.96 42.6851Z" fill="#FF5722"/>
<path d="M2.90136 26.5871C4.30472 26.5871 5.44237 25.4119 5.44237 23.9623C5.44237 22.5127 4.30472 21.3375 2.90136 21.3375C1.498 21.3375 0.360352 22.5127 0.360352 23.9623C0.360352 25.4119 1.498 26.5871 2.90136 26.5871Z" fill="#FF5722"/>
<path d="M111.6 21.3475C110.198 21.3475 109.059 22.5252 109.059 23.9723C109.059 25.4194 110.198 26.5971 111.6 26.5971C113.002 26.5971 114.141 25.4194 114.141 23.9723C114.141 22.5252 113.002 21.3475 111.6 21.3475Z" fill="#FF5722"/>
<path d="M24.6411 21.3475C23.2392 21.3475 22.1001 22.5252 22.1001 23.9723C22.1001 25.4194 23.2392 26.5971 24.6411 26.5971C26.043 26.5971 27.1821 25.4194 27.1821 23.9723C27.1821 22.5252 26.043 21.3475 24.6411 21.3475Z" fill="#FF5722"/>
<path d="M68.1206 21.3475C66.7187 21.3475 65.5796 22.5252 65.5796 23.9723C65.5796 25.4194 66.7187 26.5971 68.1206 26.5971C69.5225 26.5971 70.6616 25.4194 70.6616 23.9723C70.6616 22.5252 69.5225 21.3475 68.1206 21.3475Z" fill="#FF5722"/>
<path d="M46.3809 21.3475C44.9789 21.3475 43.8398 22.5252 43.8398 23.9723C43.8398 25.4194 44.9789 26.5971 46.3809 26.5971C47.7828 26.5971 48.9219 25.4194 48.9219 23.9723C48.9219 22.5252 47.7828 21.3475 46.3809 21.3475Z" fill="#FF5722"/>
<path d="M89.8603 21.3475C88.4584 21.3475 87.3193 22.5252 87.3193 23.9723C87.3193 25.4194 88.4584 26.5971 89.8603 26.5971C91.2623 26.5971 92.4014 25.4194 92.4014 23.9723C92.4014 22.5252 91.2623 21.3475 89.8603 21.3475Z" fill="#FF5722"/>
<path d="M155.08 21.3475C153.678 21.3475 152.539 22.5252 152.539 23.9723C152.539 25.4194 153.678 26.5971 155.08 26.5971C156.482 26.5971 157.621 25.4194 157.621 23.9723C157.621 22.5252 156.491 21.3475 155.08 21.3475Z" fill="#FF5722"/>
<path d="M133.34 21.3475C131.938 21.3475 130.799 22.5252 130.799 23.9723C130.799 25.4194 131.938 26.5971 133.34 26.5971C134.742 26.5971 135.881 25.4194 135.881 23.9723C135.881 22.5252 134.752 21.3475 133.34 21.3475Z" fill="#FF5722"/>
<path d="M24.2808 5.23955C25.6827 5.23955 26.8218 4.06189 26.8218 2.61477C26.8218 1.16765 25.6827 -0.0100098 24.2808 -0.0100098C22.8788 -0.0100098 21.7397 1.16765 21.7397 2.61477C21.7397 4.06189 22.8788 5.23955 24.2808 5.23955Z" fill="#FF5722"/>
<path d="M2.54101 5.23958C3.94295 5.23958 5.08202 4.06192 5.08202 2.6148C5.08202 1.16768 3.93321 0 2.54101 0C1.14881 0 0 1.17766 0 2.62478C0 4.0719 1.13907 5.24956 2.54101 5.24956V5.23958Z" fill="#FF5722"/>
<path d="M154.719 5.24956C156.123 5.24956 157.26 4.07441 157.26 2.62478C157.26 1.17515 156.123 0 154.719 0C153.316 0 152.178 1.17515 152.178 2.62478C152.178 4.07441 153.316 5.24956 154.719 5.24956Z" fill="#FF5722"/>
<path d="M89.5 5.23955C90.9019 5.23955 92.041 4.06189 92.041 2.61477C92.041 1.16765 90.9019 -0.0100098 89.5 -0.0100098C88.0981 -0.0100098 86.959 1.16765 86.959 2.61477C86.959 4.06189 88.0981 5.23955 89.5 5.23955Z" fill="#FF5722"/>
<path d="M111.24 5.23955C112.642 5.23955 113.781 4.06189 113.781 2.61477C113.781 1.16765 112.642 -0.0100098 111.24 -0.0100098C109.838 -0.0100098 108.699 1.16765 108.699 2.61477C108.699 4.06189 109.838 5.23955 111.24 5.23955Z" fill="#FF5722"/>
<path d="M132.979 5.23955C134.381 5.23955 135.52 4.06189 135.52 2.61477C135.52 1.16765 134.381 -0.0100098 132.979 -0.0100098C131.578 -0.0100098 130.438 1.16765 130.438 2.61477C130.438 4.06189 131.578 5.23955 132.979 5.23955Z" fill="#FF5722"/>
<path d="M46.0205 5.23955C47.4224 5.23955 48.5615 4.06189 48.5615 2.61477C48.5615 1.16765 47.4224 -0.0100098 46.0205 -0.0100098C44.6186 -0.0100098 43.4795 1.16765 43.4795 2.61477C43.4795 4.06189 44.6186 5.23955 46.0205 5.23955Z" fill="#FF5722"/>
<path d="M176.459 5.23955C177.861 5.23955 179 4.06189 179 2.61477C179 1.16765 177.871 -0.0100098 176.459 -0.0100098C175.047 -0.0100098 173.918 1.16765 173.918 2.61477C173.918 4.06189 175.057 5.23955 176.459 5.23955Z" fill="#FF5722"/>
<path d="M67.7602 5.23955C69.1622 5.23955 70.3013 4.06189 70.3013 2.61477C70.3013 1.16765 69.1622 -0.0100098 67.7602 -0.0100098C66.3583 -0.0100098 65.2192 1.16765 65.2192 2.61477C65.2192 4.06189 66.3583 5.23955 67.7602 5.23955Z" fill="#FF5722"/>
</g>
<defs>
<clipPath id="clip0_2058_1666">
<rect width="179" height="176" fill="white"/>
</clipPath>
</defs>
</svg>
