<svg width="1024" height="1354" viewBox="0 0 1024 1354" fill="none" xmlns="http://www.w3.org/2000/svg">
<g opacity="0.1" clip-path="url(#clip0_2058_1616)">
<path d="M-801.598 1246.95C-805.544 1223.68 -792.123 881.905 -667.782 598.924C-556.168 345.266 -296.617 200.698 7.16096 383.01C332.647 578.404 613.4 598.053 839.781 541.055C1063.2 484.545 1211.77 314.274 1278.5 205.699C1423.32 -28.9325 1637.25 116.199 1562.1 424.907C1526.65 568.51 1433.18 608.66 1271.21 623.56C1101.91 639.135 851.775 606.074 504.835 673.45C170.244 738.682 -206.281 895.345 -418.006 1094.76C-643.334 1307.16 -768.565 1450 -801.598 1246.95Z" fill="url(#paint0_linear_2058_1616)"/>
</g>
<defs>
<linearGradient id="paint0_linear_2058_1616" x1="1454" y1="1062.32" x2="-750.332" y2="379.04" gradientUnits="userSpaceOnUse">
<stop stop-color="#5D50C6"/>
<stop offset="1" stop-color="#F85E9F"/>
</linearGradient>
<clipPath id="clip0_2058_1616">
<rect width="2506.2" height="958.638" fill="white" transform="translate(-940 407.874) rotate(-9.36634)"/>
</clipPath>
</defs>
</svg>
