<svg width="104" height="33" viewBox="0 0 104 33" fill="none" xmlns="http://www.w3.org/2000/svg">
<path d="M54.819 8.37056C54.819 9.52382 53.8897 10.4524 52.7365 10.4524C51.5832 10.4524 50.6546 9.52382 50.6546 8.37056C50.6546 7.2173 51.5515 6.28868 52.7365 6.28868C53.9224 6.32068 54.819 7.24962 54.819 8.37056ZM46.2342 12.567V13.0796C46.2342 13.0796 45.2416 11.7977 43.1274 11.7977C39.6362 11.7977 36.9131 14.4565 36.9131 18.14C36.9131 21.7917 39.6042 24.4822 43.1274 24.4822C45.2736 24.4822 46.2342 23.169 46.2342 23.169V23.7133C46.2342 23.9696 46.4268 24.1613 46.6828 24.1613H49.277V12.117H46.6828C46.4268 12.118 46.2342 12.3426 46.2342 12.567ZM46.2342 20.2862C45.7542 20.9911 44.7929 21.5997 43.64 21.5997C41.5901 21.5997 40.0202 20.3185 40.0202 18.14C40.0202 15.9618 41.5901 14.6805 43.64 14.6805C44.7613 14.6805 45.7862 15.3211 46.2342 15.9938V20.2862ZM51.1992 12.118H54.274V24.1622H51.1992V12.118ZM97.1327 11.7974C95.0185 11.7974 94.0252 13.0793 94.0252 13.0793V6.32068H90.9504V24.1622H93.5452C93.8015 24.1622 93.9932 23.9379 93.9932 23.7136V23.1693C93.9932 23.1693 94.9865 24.4826 97.1 24.4826C100.592 24.4826 103.314 21.7927 103.314 18.1409C103.314 14.4892 100.592 11.7974 97.1327 11.7974ZM96.6201 21.5674C95.4345 21.5674 94.5059 20.9594 94.0252 20.2542V15.9618C94.5059 15.3211 95.5308 14.6485 96.6201 14.6485C98.6699 14.6485 100.239 15.9298 100.239 18.108C100.239 20.2862 98.6702 21.5674 96.6201 21.5674ZM89.3492 17.0194V24.1942H86.2737V17.3713C86.2737 15.3858 85.6331 14.5845 83.9045 14.5845C82.9759 14.5845 82.0146 15.0651 81.405 15.7701V24.1626H78.3308V12.1183H80.7644C81.0207 12.1183 81.213 12.3426 81.213 12.567V13.0796C82.1099 12.1503 83.2949 11.7977 84.4798 11.7977C85.8254 11.7977 86.9466 12.1826 87.8436 12.9513C88.9322 13.8482 89.3492 15.0012 89.3492 17.0194ZM70.8663 11.7974C68.7528 11.7974 67.7595 13.0793 67.7595 13.0793V6.32068H64.6847V24.1622H67.2789C67.5352 24.1622 67.7275 23.9379 67.7275 23.7136V23.1693C67.7275 23.1693 68.7208 24.4826 70.8343 24.4826C74.3261 24.4826 77.0486 21.7927 77.0486 18.1409C77.0806 14.4888 74.3581 11.7974 70.8663 11.7974ZM70.3537 21.5674C69.1688 21.5674 68.2402 20.9594 67.7595 20.2542V15.9618C68.2402 15.3211 69.2651 14.6485 70.3537 14.6485C72.4042 14.6485 73.9735 15.9298 73.9735 18.108C73.9735 20.2862 72.4042 21.5674 70.3537 21.5674ZM62.0259 11.7974C62.9545 11.7974 63.4351 11.958 63.4351 11.958V14.8085C63.4351 14.8085 60.8726 13.9436 59.2714 15.7698V24.1939H56.1959V12.118H58.7907C59.0471 12.118 59.2387 12.3423 59.2387 12.5666V13.0793C59.816 12.4063 61.0653 11.7974 62.0259 11.7974ZM30.0908 23.073C29.9308 22.6887 29.7705 22.2724 29.6105 21.9197C29.3539 21.3434 29.0976 20.7985 28.8739 20.2862L28.8419 20.2542C26.6314 15.4491 24.2615 10.5808 21.7627 5.77637L21.6667 5.58373C21.4039 5.08533 21.1477 4.58344 20.8984 4.07817C20.5777 3.50122 20.2578 2.89323 19.7451 2.31628C18.7202 1.03502 17.2466 0.330078 15.6774 0.330078C14.0755 0.330078 12.6342 1.03503 11.5776 2.25196C11.097 2.82827 10.7443 3.4369 10.4244 4.01385C10.1744 4.5188 9.91824 5.02069 9.65605 5.51942L9.55973 5.71205C7.09322 10.5164 4.69103 15.3851 2.48083 20.1898L2.44852 20.2535C2.22452 20.7668 1.96789 21.3111 1.71157 21.8871C1.55157 22.2397 1.39158 22.624 1.23158 23.0403C0.814949 24.2253 0.686626 25.3465 0.847262 26.5001C1.19958 28.9026 2.80082 30.9199 5.01134 31.8175C5.84428 32.1701 6.70922 32.3301 7.60585 32.3301C7.86216 32.3301 8.18216 32.2981 8.4388 32.2658C9.49606 32.1378 10.585 31.7858 11.6423 31.1771C12.9555 30.4402 14.2048 29.3836 15.614 27.846C17.0233 29.3836 18.3045 30.4402 19.5858 31.1771C20.6433 31.7858 21.732 32.1378 22.7889 32.2658C23.0452 32.2984 23.3658 32.3301 23.6222 32.3301C24.5191 32.3301 25.4157 32.1701 26.2164 31.8175C28.4589 30.9199 30.0281 28.8706 30.3807 26.5001C30.6351 25.3792 30.5071 24.2586 30.0908 23.073ZM15.6451 24.7386C13.9152 22.5604 12.7939 20.5105 12.4099 18.7812C12.2499 18.0443 12.2176 17.4037 12.3139 16.827C12.3776 16.3144 12.5702 15.8658 12.8265 15.4815C13.4352 14.6172 14.4601 14.0722 15.6454 14.0722C16.8309 14.0722 17.8879 14.5848 18.4645 15.4815C18.7208 15.8658 18.9128 16.3147 18.9775 16.827C19.0731 17.404 19.0411 18.0763 18.8811 18.7812C18.4956 20.4785 17.3743 22.5287 15.6451 24.7386ZM28.4249 26.2441C28.201 27.9097 27.0797 29.3516 25.5104 29.9922C24.7418 30.3122 23.9086 30.4085 23.0763 30.3122C22.2756 30.2159 21.4744 29.9596 20.6421 29.4796C19.4888 28.8383 18.3359 27.846 16.9903 26.3721C19.1042 23.7779 20.3854 21.4071 20.8661 19.2935C21.0904 18.3003 21.1227 17.4037 21.0261 16.5704C20.8984 15.7698 20.6097 15.0328 20.1614 14.3922C19.1679 12.9503 17.502 12.118 15.6447 12.118C13.7875 12.118 12.1216 12.9829 11.1287 14.3922C10.6803 15.0328 10.3917 15.7698 10.2637 16.5704C10.1357 17.4037 10.1674 18.3323 10.4237 19.2935C10.904 21.4071 12.2173 23.8096 14.2992 26.4041C12.9859 27.8777 11.8006 28.871 10.6474 29.5116C9.81444 29.9922 9.01414 30.2485 8.21352 30.3442C7.3489 30.4405 6.51563 30.3122 5.77901 30.0242C4.20976 29.3836 3.0885 27.9417 2.86451 26.2761C2.76851 25.4755 2.83219 24.6749 3.15282 23.7779C3.2485 23.4573 3.40913 23.1373 3.56913 22.753C3.79345 22.2404 4.04912 21.6954 4.30576 21.1511L4.33808 21.0874C6.54796 16.3144 8.91815 11.4457 11.3847 6.70531L11.4807 6.51268C11.7373 6.03269 11.9936 5.52006 12.2496 5.03943C12.5059 4.5268 12.7939 4.04616 13.1465 3.62953C13.8192 2.86155 14.7158 2.4446 15.709 2.4446C16.7023 2.4446 17.5989 2.86155 18.2716 3.62953C18.6242 4.04712 18.9122 4.52776 19.1685 5.03943C19.4251 5.52006 19.6814 6.03269 19.9371 6.51268L20.0334 6.70531C22.4623 11.4654 24.8011 16.271 27.0483 21.1194V21.1514C27.305 21.6647 27.529 22.2407 27.7853 22.754C27.9453 23.1376 28.1056 23.4576 28.2016 23.7783C28.4573 24.6102 28.5533 25.4115 28.4249 26.2441Z" fill="#191825" fill-opacity="0.5"/>
</svg>
